<svg xmlns="http://www.w3.org/2000/svg" xmlns:xlink="http://www.w3.org/1999/xlink" fill="none" version="1.1" width="512" height="512" viewBox="0 0 512 512"><ellipse cx="256" cy="256" rx="256" ry="256" fill="#EAE6DC" fill-opacity="1"/><ellipse cx="256" cy="256" rx="238.5" ry="238.5" fill-opacity="0" stroke-opacity="1" stroke="#D4AF37" fill="none" stroke-width="35"/><path d="M310.47682499999996,129.469586725Q310.998325,128.155975195,311.25912500000004,128.287333559Q311.519885,128.418691915,313.08444499999996,129.732303525L318.56050500000003,133.935854925Q319.082045,134.461301825,320.385875,135.380824525Q321.689685,136.300347325,322.863115,137.351242025Q324.036545,138.402123625,324.949245,139.321658625Q325.861905,140.241182625,325.861905,140.503896625L301.350055,169.140582625L323.51502500000004,167.56424362500002Q329.512615,167.301532625,335.379825,166.381996625Q341.247025,165.462470625,346.983845,164.148860625Q349.852265,166.513370625,352.590305,170.060111625Q355.328305,173.606857625,356.632125,177.547679625Q346.723065,178.073123625,337.20518500000003,178.598567625Q327.687285,179.124008625,318.29974500000003,179.386737625Q313.60598500000003,179.386737625,310.085645,179.649455625Q306.565335,179.912170625,303.175395,180.043544625Q299.785465,180.174899625,296.265155,180.568973625Q292.744825,180.963062625,287.79028500000004,181.225776625Q283.878825,185.954780625,280.48886500000003,190.421047625Q277.359715,194.099159625,274.100155,198.039993625Q270.840605,201.98080462500002,268.754485,204.082588625L270.319075,204.082588625L278.924305,203.55715162500002Q281.792705,203.294418625,284.269985,203.163062625Q286.74722499999996,203.031707625,287.52955499999996,203.031707625Q294.04864499999996,203.031707625,300.176575,202.90035262499998Q306.304585,202.768974625,311.519885,199.090873625L315.692095,200.667198625L322.211225,203.031707625Q325.861905,204.60803262500002,328.599965,205.790298625Q331.33795499999997,206.972526625,332.641785,207.235236625L334.72790499999996,208.286140625L334.72790499999996,209.33702862500002L329.773375,217.48139162500001L329.773375,325.197330625L328.991075,326.248210625Q327.94802500000003,327.299130625,327.687285,327.299130625L323.254285,329.400890625L312.562915,334.392640625Q310.998325,334.392640625,310.737575,333.604450625Q310.47682499999996,332.816300625,310.47682499999996,331.502700625L310.47682499999996,318.103870625L309.694515,317.053010625L295.352465,317.053010625L288.572585,317.578400625Q286.486465,317.84112062500003,284.400345,317.84112062500003Q282.314235,317.84112062500003,277.881225,317.84112062500003Q272.665935,317.84112062500003,267.059535,317.972490625Q261.453075,318.103870625,256.759315,318.629320625Q252.06555500000002,318.892010625,249.979445,320.205630625L249.979445,322.832870625Q249.979445,324.67190062500003,249.849065,326.510970625Q249.718655,328.350010625,249.197135,329.663620625Q248.675625,330.45178062499997,246.328735,331.371320625Q243.981855,332.290860625,242.678035,332.816300625Q239.548855,334.392640625,237.46275500000002,334.392640625Q259.888485,339.121610625,282.05346499999996,343.32518062500003Q304.21846500000004,347.52869062499997,326.64419499999997,347.52869062499997L372.799495,347.52869062499997L373.321065,356.98668062499996L370.06152499999996,358.037570625Q366.801955,359.08849062499996,362.23857499999997,360.53342062499996Q357.675205,361.97841062500004,352.199145,363.817470625Q346.723065,365.656510625,342.029315,367.232880625Q337.335575,368.809170625,334.206375,369.991440625Q331.077205,371.173660625,330.816435,371.173660625Q329.773375,371.173660625,327.165755,371.699160625Q325.07962499999996,372.224550625,323.775805,372.224550625Q323.51502500000004,372.224550625,317.778215,370.910930625Q312.041385,369.597320625,302.914645,367.36420062499997Q293.78788499999996,365.13106062500003,282.183855,362.241150625Q270.579845,359.351170625,258.584675,356.461260625Q230.161339,349.630460625,194.17583100000002,340.697940625Q188.178249,337.545290625,184.527554,337.545290625L182.70219,337.545290625Q176.443851,343.062440625,170.446259,350.681370625Q168.881676,352.52042062500004,167.447474,354.228120625Q166.013266,355.935810625,164.709444,357.774860625L159.49415199999999,364.080170625Q158.19033100000001,365.393780625,156.495365,367.626910625Q154.800392,369.860050625,154.800392,372.224550625L152.714275,372.224550625Q152.192745,371.43640062500003,150.497775,369.72871062499996Q148.802807,368.02101062500003,146.716691,365.919250625L140.1975775,359.87660062500004Q139.6760488,359.87660062500004,138.6329911,358.300310625Q137.32916796,356.72398062499997,136.546875,356.72398062499997L136.546875,355.67310062499996L138.3722266,353.834040625L143.5875173,349.893190625Q147.238221,346.74055062499997,150.888925,344.113310625Q154.800392,341.223360625,158.320713,338.46481062500004Q161.841036,335.70624062499996,163.405621,334.392640625Q164.448679,333.604450625,166.14364799999998,332.02812062500004Q167.838615,330.45178062499997,169.403206,328.875490625L172.010849,325.985520625Q173.053909,324.934620625,173.053909,324.146450625L173.053909,234.821040625Q164.970207,234.821040625,157.53842,235.477850625Q150.10663,236.134650625,142.2836943,236.922810625L141.2406354,234.821040625L140.7191062,232.982000625L139.6760488,230.092060625Q139.6760488,229.566600625,139.4152842,228.778440625Q139.1545196,227.990280625,138.89375569999999,227.464828625L138.3722266,225.625778625Q142.0229301,225.10033462500002,145.8040161,224.968971625Q149.585099,224.837615625,153.235804,224.574890625Q157.147272,224.31216462499998,160.928356,224.180808625Q164.709444,224.049445625,168.360146,223.52400162499998L169.142441,223.52400162499998Q169.924732,223.261276625,170.446259,222.735832625Q170.967796,222.210395625,171.489319,221.684944625Q172.532375,220.634063625,174.096966,220.634063625L174.879265,220.634063625L176.965378,221.684944625L180.616074,222.998573625L186.092133,225.10033462500002Q188.960541,226.413932625,191.43780900000002,227.464828625Q193.915073,228.515720625,195.218895,228.778440625Q196.261951,228.778440625,196.261951,230.880200625L196.261951,231.931100625Q196.261951,232.719260625,195.088505,234.952410625Q193.915073,237.18555062500002,193.132771,237.97369062500002L193.132771,325.197330625L193.654305,325.72281062499997Q194.17583100000002,326.248210625,195.218895,326.248210625Q196.001183,326.248210625,196.783478,326.510970625Q198.348072,327.036420625,200.173416,327.430470625Q201.998764,327.824570625,203.82412,328.087280625Q204.86718000000002,328.350010625,206.69252,328.350010625L207.735588,328.350010625L211.386292,328.875490625Q212.95088199999998,329.400890625,214.51545,329.663620625Q216.080063,329.926380625,217.905403,330.189070625L224.163757,331.502700625Q227.292915,332.290860625,227.814461,332.290860625L229.900566,332.290860625Q229.900566,331.502700625,230.161339,330.714510625Q230.161339,328.875490625,230.422096,327.824570625Q230.422096,325.72281062499997,230.682861,324.934620625L230.682861,281.060060625Q230.682861,279.483730625,230.682861,277.11926062500004Q230.682861,274.75478062499997,230.943626,271.602080625L230.943626,240.338200625Q231.204391,235.871930625,231.204391,231.799740625Q231.204391,227.727546625,231.204391,223.786727625Q231.204391,219.845886625,231.204391,216.299148625Q231.204391,212.75239562500002,231.465149,209.599754625L231.465149,200.14176162500002Q237.46275500000002,203.031707625,241.634975,204.082588625Q245.80722500000002,205.13347662500001,251.80478499999998,205.13347662500001L255.716275,205.13347662500001L256.759315,204.082588625L267.18991500000004,182.539394625Q253.369375,184.115722625,240.331165,184.115722625Q226.7714,184.115722625,213.472397,185.692046625Q211.125542,184.115722625,209.952087,181.225776625Q208.778648,178.335845625,208.778648,175.445903625L209.300163,174.395023625L218.687698,173.869579625Q221.556107,173.606857625,224.033379,173.47548262499998Q226.51064300000002,173.344127625,227.814461,173.344127625L242.938805,173.344127625Q250.240205,173.606857625,257.54159500000003,171.242347625L257.54159500000003,170.191470625Q257.54159500000003,168.08969862499998,256.759315,167.301532625Q255.977025,166.513370625,254.933955,164.674312625Q253.890915,162.83526262499998,252.587085,160.733489625L250.240205,157.055374625L248.936385,154.953609625Q248.414855,154.165431625,246.98064499999998,151.800941625Q245.546435,149.436448625,243.46031499999998,146.546510625Q241.113445,143.656567625,239.157725,140.635270625Q237.201975,137.613958325,236.941225,137.088525725L236.419678,136.300347325L240.070385,130.257750625L246.850255,133.673137625L250.76174500000002,136.300347325L257.54159500000003,141.292061625L269.27601500000003,150.750060625Q271.36213499999997,152.851838625,272.92672500000003,153.90271562499998Q273.18748500000004,153.90271562499998,274.230565,155.216327625Q275.273595,156.529937625,275.79513499999996,157.055374625L275.79513499999996,157.84354762499999Q272.144405,163.360694625,265.364545,170.191470625L265.364545,171.242347625L269.27601500000003,171.242347625Q273.18748500000004,170.716918625,276.838165,171.242347625Q280.48886500000003,171.505084625,282.444625,170.848274625Q284.400345,170.191470625,287.007995,168.615146625Q288.311825,167.826976625,291.962535,161.915733625Q295.613255,156.004491625,299.655075,149.04236062500001Q303.69692499999996,142.080239625,306.95651499999997,136.168988725Q310.216045,130.257750625,310.47682499999996,129.469586725ZM242.678035,305.755920625L243.46031499999998,307.857710625L247.371785,307.857710625Q248.414855,307.857710625,249.979445,307.857710625Q251.544025,307.857710625,254.41243500000002,307.59502062499996Q257.280855,307.59502062499996,260.279645,307.59502062499996Q263.278415,307.59502062499996,266.929105,307.332270625Q273.969775,307.332270625,281.662305,306.938190625Q289.35488499999997,306.544100625,296.13478499999997,306.018660625Q299.263935,305.755920625,301.871585,305.624590625Q304.479235,305.493190625,306.565335,304.967790625Q310.737575,304.705060625,310.737575,303.65414062499997L310.737575,281.060060625L309.95527500000003,280.009220625L284.400345,280.009220625L280.228135,280.534620625Q278.924305,280.797360625,277.750865,280.797360625Q276.577425,280.797360625,275.79513499999996,280.797360625Q274.491305,281.060060625,273.448245,281.060060625L266.668365,281.060060625Q262.235385,281.060060625,255.45549499999998,281.322810625Q248.675625,281.585540625,243.46031499999998,283.16186062500003L242.678035,284.212720625L242.678035,305.755920625ZM242.417265,235.871930625L243.199565,237.97369062500002L248.15409499999998,237.97369062500002Q261.453075,237.97369062500002,273.448245,237.31689062499998Q285.443405,236.660090625,297.960125,235.871930625Q299.524715,235.871930625,301.350055,235.740570625Q303.175395,235.609210625,305.261535,235.346490625L309.694515,234.821040625L310.47682499999996,232.982000625L310.47682499999996,214.328750625L309.694515,213.277862625Q308.390705,213.277862625,306.304585,213.409217625Q304.21846500000004,213.540565625,301.610805,213.803298625Q298.742385,214.066017625,296.52590499999997,214.197379625Q294.309415,214.328750625,293.266325,214.328750625Q287.26876500000003,214.854179625,281.662305,214.985534625Q276.05589499999996,215.11690562500002,270.840605,215.379630625Q265.10377500000004,215.642341625,259.497325,215.773719625Q253.890915,215.905082625,248.15409499999998,216.430511625Q247.632565,216.430511625,246.719875,216.561889625Q245.80722500000002,216.693237625,244.50338499999998,216.955955625L242.417265,217.48139162500001L242.417265,235.871930625ZM242.417265,268.712160625L243.199565,270.813930625L249.979445,270.813930625Q256.498555,270.813930625,262.887295,270.551210625Q269.27601500000003,270.288500625,275.79513499999996,269.763050625Q282.314235,269.237610625,288.70297500000004,268.97490062500003Q295.09169499999996,268.712160625,301.871585,268.712160625L310.47682499999996,268.712160625L310.47682499999996,247.168970625L287.007995,247.168970625L282.83576500000004,247.69440062500001Q281.531935,247.957150625,280.48886500000003,247.957150625Q279.44584499999996,247.957150625,278.402775,247.957150625Q277.098935,248.219860625,276.577425,248.219860625Q276.05589499999996,248.219860625,275.79513499999996,248.219860625L267.18991500000004,248.219860625Q262.235385,248.219860625,255.32511499999998,248.482580625Q248.414855,248.745310625,243.199565,250.321630625L242.417265,251.372530625L242.417265,268.712160625ZM147.238221,139.453017625L151.931982,134.461301825L153.757336,135.249465925L158.19033100000001,139.190286625Q162.623327,142.605672625,167.969002,147.071954625Q173.314671,151.538223625,179.051495,156.267209625Q181.919899,158.631713625,183.87563699999998,160.602119625Q185.831375,162.572532625,187.656727,164.148860625L195.218895,172.293247625L195.218895,173.344127625Q195.218895,174.657737625,193.263157,177.679038625Q191.30743,180.700347625,188.439018,183.85300462499998L179.833786,193.836425625Q179.833786,194.099159625,178.79073,191.997382625L176.965378,189.107437625Q175.922318,187.531112625,175.140026,185.954780625Q174.357727,184.37845562500002,174.096966,183.590282625L173.053909,181.488513625L147.238221,139.453017625ZM310.47682499999996,274.492050625Q309.95527500000003,275.017490625,310.47682499999996,275.017490625L310.47682499999996,274.492050625Z" fill="#D4B039" fill-opacity="1"/><path d="M276.55688499999997,165.809867625Q278.67019500000004,163.202648625,280.26097500000003,160.798610625L281.150135,159.454854625L281.150135,154.848909625L279.595735,153.282914625Q279.283005,152.967853625,278.424255,151.886318625Q277.179775,150.319072625,275.892245,149.487542625L275.912505,149.457363625Q274.788745,148.702571625,273.076705,146.977687625L272.867595,146.767017625L260.810875,137.049236325L253.843545,131.919491725L249.55827499999998,129.041221145L238.051105,123.244444825L230.084587,136.430518125L232.370529,139.885112625Q232.963058,140.920061625,234.662346,143.545189625Q236.733475,146.744762625,239.20468499999998,149.800504625Q241.108275,152.445123625,242.402075,154.578128625Q243.83335499999998,156.937787625,244.42440499999998,157.838621625L245.725875,159.935808625L248.036565,163.556400625Q249.284835,165.568599625,250.276005,167.316203625Q250.33059500000002,167.412456625,250.384975,167.506847625Q246.75082500000002,168.122833625,243.131375,167.992591625L243.03511500000002,167.989127625L227.814461,167.989127625Q226.368752,167.989127625,223.749794,168.127998625Q221.211258,168.262622625,218.294388,168.528213625L205.88890800000001,169.222576625L203.423645,174.190215625L203.423645,175.445903625Q203.423645,179.381564625,204.990509,183.240413625Q206.780136,187.647846625,210.48658,190.137374625L212.133072,191.243282625L214.102707,191.009822625Q227.087662,189.470722625,240.331165,189.470722625Q249.10763500000002,189.470722625,258.22175500000003,188.773765625L252.893595,199.778472625L251.80478499999998,199.778472625Q246.47125499999999,199.778472625,242.942915,198.88977062499998Q239.29765500000002,197.97161862500002,233.789673,195.317596625L226.110146,191.61721062499998L226.110146,209.382873625Q225.849388,212.656516625,225.849388,216.299148625L225.849388,231.799740625Q225.849388,235.715830625,225.597733,240.02608062500002L225.58862299999998,240.182010625L225.58862299999998,271.38388062499996Q225.327858,274.619610625,225.327858,277.11926062500004L225.327858,324.338150625Q225.174316,325.168620625,225.11118299999998,326.229870625L218.837784,324.913090625L218.66821299999998,324.888690625Q216.905495,324.635010625,215.40226,324.382550625Q214.254692,324.18985062499996,213.091003,323.799070625L212.63028,323.644360625L208.119011,322.99501062499996L206.69252,322.99501062499996Q205.53124200000002,322.99501062499996,205.13208,322.894470625L204.86232,322.826520625L204.58696700000002,322.786900625Q202.946449,322.550780625,201.303391,322.196040625Q199.76989700000001,321.865000625,198.488503,321.434660625L198.48777,321.43442062500003L198.48777,239.75518062499998Q199.138535,238.757150625,199.828903,237.443330625Q201.616951,234.040540625,201.616951,231.931100625L201.616951,230.880200625Q201.616951,228.57360062499998,200.797966,226.92334762500002Q199.242489,223.78906262499999,195.998672,223.461631625Q195.18908299999998,223.239257625,193.529091,222.53506462500002Q191.121506,221.513732625,188.321793,220.231590625L188.16843,220.16136162499998L182.429157,217.959846625L179.084286,216.756263625L176.151882,215.279060625L174.096966,215.279060625Q170.30253199999999,215.279060625,167.688633,217.912567625L167.344294,218.259490625Q164.102421,218.712303625,160.742435,218.829040625Q156.874609,218.963409625,152.851421,219.233703625Q149.299773,219.489303625,145.618084,219.617202625Q141.5470743,219.758636625,137.6093452,220.325393625L131.5502582,221.197479625L133.8769395,229.401980625L134.0969551,229.845320625Q134.1860862,230.024920625,134.3210485,230.429580625L134.3210487,231.028860625L135.6184454,234.623490625L136.22382784,236.758220625L139.134016,242.622250625L142.8204899,242.250830625Q150.610901,241.465950625,158.00985,240.81206062500002Q162.71519899999998,240.39621062499998,167.69891,240.25226062500002L167.69891,322.770710625L165.513868,325.192320625Q164.065411,326.64799062500003,162.49682,328.106810625Q161.002052,329.496950625,160.177177,330.120270625L160.067558,330.20309062499996L159.96233,330.291440625Q158.466799,331.547060625,155.017775,334.249770625Q151.557367,336.961360625,147.760963,339.766830625Q143.9849563,342.48425062499996,140.2213554,345.72488062499997L134.8399035,349.791290625L131.1918745,353.466700625L131.1918745,362.078980625L134.7529634,362.078980625Q135.56917959,363.143280625,136.454831451,363.84828062500003Q136.531820141,363.90956062500004,136.609377824,363.96817062499997Q136.85439736,364.15330062500004,137.10459399,364.311280625L142.9945793,369.770780625L146.697093,373.501100625Q148.019124,374.833050625,148.24847,375.179640625L149.836525,377.579540625L160.155392,377.579540625L160.155392,372.224550625Q160.155392,371.662150625,160.760845,370.864460625Q162.241138,368.914170625,163.294849,367.85254062499996L163.465841,367.680250625L168.962772,361.034440625L169.077953,360.871980625Q170.254967,359.211790625,171.536724,357.685580625L174.596004,354.06728062499997L174.653961,353.993650625Q179.631313,347.670760625,184.758873,342.90623062500003Q187.090229,343.023130625,191.68421899999998,345.437970625L192.26524,345.743380625L257.310785,361.662540625L280.899155,367.43976062499996L301.641925,372.56575062499996Q310.808015,374.80850062499997,316.582965,376.130840625Q322.909725,377.579540625,323.775805,377.579540625Q325.695865,377.579540625,328.341705,376.924910625Q330.322145,376.528660625,330.816435,376.528660625Q332.05505500000004,376.528660625,336.099015,375.00082062499996Q339.13484500000004,373.853840625,343.734145,372.309250625L353.903975,368.893840625Q359.335605,367.069700625,363.866215,365.635070625L371.70471499999996,363.134230625L378.895355,360.81593062499996L377.867345,342.173690625L326.64419499999997,342.173690625Q304.721805,342.173690625,283.05125499999997,338.063960625Q268.511975,335.30661062499996,253.859025,332.32237062499996L253.969375,332.155610625L254.17424499999998,331.639600625Q255.00161500000002,329.55559062500004,255.190655,326.889680625Q255.28887500000002,325.50421062500004,255.32000499999998,324.118510625Q256.085765,324.030390625,257.058545,323.975950625L257.207155,323.967640625L257.35506499999997,323.95108062500003Q261.814425,323.45187062499997,267.184985,323.326020625Q272.72886500000004,323.196120625,277.881225,323.196120625L284.400345,323.196120625Q286.756405,323.196120625,289.109815,322.907820625L295.55963499999996,322.408000625L305.121825,322.408000625L305.121825,331.502700625Q305.121825,333.679140625,305.653545,335.28630062499997Q307.129405,339.747630625,312.562915,339.747630625L313.751435,339.747630625L325.548405,334.239590625L329.981395,332.137830625L329.969805,332.11336062500004Q331.362395,331.46074062499997,332.791835,330.020510625L333.05958499999997,329.75073062499996L335.128375,326.971680625L335.128375,218.982284625L340.082905,210.83790562500002L340.082905,204.98767062500002L334.406705,202.128234625L333.699505,201.985740625Q332.945695,201.83385462500001,330.722765,200.874023625L324.18733499999996,198.052093625L317.58471499999996,195.657806625L310.755085,193.077468625L308.433575,194.714713625Q304.554745,197.450263625,300.061815,197.54658462499998Q293.991545,197.676704625,287.52955499999996,197.676704625Q286.605395,197.676704625,283.986455,197.815574625Q282.598935,197.889144625,281.098405,198.001853625Q282.853255,195.90599062500002,284.567535,193.890975625L284.664165,193.777397625L284.75433499999997,193.658607625Q287.430315,190.133018625,290.44210499999997,186.435237625Q294.066165,186.203590625,296.860885,185.890731625Q300.18748500000004,185.518340625,303.382765,185.394527625Q306.868375,185.259445625,310.484175,184.989604625Q313.805525,184.74173762499998,318.29974500000003,184.74173762499998L318.374665,184.74173762499998L318.44955500000003,184.739642625Q327.909805,184.474880625,337.494435,183.945751625L363.916515,182.516464625L361.716095,175.865650625Q360.125355,171.057575625,356.82914500000004,166.787776625Q353.723095,162.764320625,350.390015,160.016784625L348.35691499999996,158.340862625L345.788585,158.928954625Q340.233615,160.200927625,334.550675,161.091575625Q328.979235,161.964759625,323.280685,162.21437062500002L323.207875,162.217563625L313.74890500000004,162.890270625L331.216905,142.482763625L331.216905,140.503896625Q331.216905,138.034804325,328.74989500000004,135.549245825Q327.726315,134.518013025,326.435655,133.362134425Q325.03033500000004,132.103569025,323.472155,131.004649125Q322.552005,130.355711925,322.36114499999996,130.163434025L322.107175,129.907570325L316.436125,125.554337025Q314.467335,123.907386825,313.667985,123.504714025Q309.288375,121.298841525,306.467315,125.562155525Q305.965335,126.320768325,305.499695,127.493681665L305.441985,127.639032485L305.39286500000003,127.787502525Q305.287625,128.105585095,302.267195,133.583202825Q299.03617499999996,139.442644625,295.02392499999996,146.353776625Q291.018665,153.252935625,287.406405,159.101915625Q284.435075,163.913093625,284.237715,164.032394625Q282.135555,165.303150625,280.739805,165.771896625Q279.834075,166.076068625,277.396595,165.913242625Q276.97781499999996,165.855838625,276.55688499999997,165.809867625ZM140.5326872,138.767033625L168.364422,184.085243625L169.159782,185.687900625Q169.555466,186.747943625,170.34323899999998,188.335296625Q171.27319,190.209167625,172.43787,191.967105625L174.118584,194.628059625Q174.617558,195.625358625,174.915066,196.14990262499998Q175.25082,196.74188262500002,175.574917,197.150031625Q176.735165,198.611190625,178.509914,199.05807462500002Q182.19338199999999,199.985572625,184.194477,196.979347625L192.449215,187.402553625Q195.581146,183.95269762499998,197.75852600000002,180.588966625Q200.57389799999999,176.239669625,200.57389799999999,173.344127625L200.57389799999999,170.190486625L191.380112,160.288867625L191.156719,160.095950625Q189.487118,158.654125625,187.676315,156.82973462500001Q185.532303,154.669643625,182.470863,152.146049625L171.402428,142.962500625Q166.065329,138.503384625,161.608416,135.063822725L156.671202,130.674763725L150.60492299999999,128.055423255L143.3370237,135.784681325L140.5326872,138.767033625ZM269.27601500000003,150.750060625Q271.36213499999997,152.851838625,272.92672500000003,153.90271562499998Q273.18748500000004,153.90271562499998,274.230565,155.216327625Q275.273595,156.529937625,275.79513499999996,157.055374625L275.79513499999996,157.84354762499999Q273.350545,161.53793762499998,269.50289499999997,165.821311625Q269.390675,165.946250625,269.27601500000003,166.07304762500002Q268.977345,166.403362625,268.670775,166.736720625Q267.122925,168.419887625,265.364545,170.191470625L265.364545,171.242347625L269.27601500000003,171.242347625Q270.00228500000003,171.144786625,270.71954500000004,171.083457625Q271.372905,171.027591625,272.018845,171.001785625Q274.48278500000004,170.90334662499998,276.838165,171.242347625Q280.48886500000003,171.505084625,282.444625,170.848274625Q284.400345,170.191470625,287.007995,168.615146625Q288.311825,167.826976625,291.962535,161.915733625Q295.613255,156.004491625,299.655075,149.04236062500001Q303.69692499999996,142.080239625,306.95651499999997,136.168988725Q307.953645,134.360671025,308.670365,133.031365425L308.693675,132.988119125Q310.297135,130.012673025,310.47682499999996,129.469586725Q310.96885499999996,128.230200529,311.22882500000003,128.2771023102Q311.24438499999997,128.2799111977,311.25912500000004,128.287333559Q311.519885,128.418691915,313.08444499999996,129.732303525L314.458285,130.786899525L315.168745,131.332270125L315.382795,131.496570125L315.417895,131.523518525L318.56050500000003,133.935854925Q319.082045,134.461301825,320.385875,135.380824525Q321.689685,136.300347325,322.863115,137.351242025Q324.036545,138.402123625,324.949245,139.321658625Q325.861905,140.241182625,325.861905,140.503896625L306.243165,163.424064625L301.350055,169.140582625L308.85578499999997,168.606784625L323.51502500000004,167.56424362500002Q329.512615,167.301532625,335.379825,166.381996625Q341.247025,165.462470625,346.983845,164.148860625Q349.852265,166.513370625,352.590305,170.060111625Q353.447085,171.169963625,354.16342499999996,172.318393625Q355.73629500000004,174.840015625,356.632125,177.547679625Q353.81260499999996,177.697189625,351.02632500000004,177.846614625Q344.015915,178.222576625,337.20518500000003,178.598567625Q327.687285,179.124008625,318.29974500000003,179.386737625Q313.60598500000003,179.386737625,310.085645,179.649455625Q306.565335,179.912170625,303.175395,180.043544625Q299.785465,180.174899625,296.265155,180.568973625Q292.744825,180.963062625,287.79028500000004,181.225776625Q283.878825,185.954780625,280.48886500000003,190.421047625Q277.359715,194.099159625,274.100155,198.039993625Q273.903685,198.277519625,273.709645,198.510581625Q271.804945,200.798164625,270.319075,202.429389625Q270.273225,202.479728625,270.22445500000003,202.533058625Q269.428175,203.403838625,268.754485,204.082588625L270.319075,204.082588625L276.322385,203.71602662499998L278.924305,203.55715162500002Q281.792705,203.294418625,284.269985,203.163062625Q286.74722499999996,203.031707625,287.52955499999996,203.031707625Q294.04864499999996,203.031707625,300.176575,202.90035262499998Q306.304585,202.768974625,311.519885,199.090873625L315.692095,200.667198625L322.211225,203.031707625L328.599965,205.790298625Q331.33795499999997,206.972526625,332.641785,207.235236625L334.72790499999996,208.286140625L334.72790499999996,209.33702862500002L329.773375,217.48139162500001L329.773375,325.197330625L328.991075,326.248210625Q327.94802500000003,327.299130625,327.687285,327.299130625L323.254285,329.400890625L312.562915,334.392640625Q310.998325,334.392640625,310.737575,333.604450625Q310.47682499999996,332.816300625,310.47682499999996,331.502700625L310.47682499999996,318.103870625L309.694515,317.053010625L295.352465,317.053010625L288.572585,317.578400625Q286.486465,317.84112062500003,284.400345,317.84112062500003L277.881225,317.84112062500003Q272.665935,317.84112062500003,267.059535,317.972490625Q261.453075,318.103870625,256.759315,318.629320625Q252.06555500000002,318.892010625,249.979445,320.205630625L249.979445,322.832870625Q249.979445,324.67190062500003,249.849065,326.510970625Q249.718655,328.350010625,249.197135,329.663620625Q248.790805,330.277690625,247.276455,330.971510625Q246.847195,331.168180625,246.328735,331.371320625Q243.981855,332.290860625,242.678035,332.816300625Q239.548855,334.392640625,237.46275500000002,334.392640625Q240.659565,335.06676062500003,243.852435,335.73048062500004L244.180395,335.798630625Q245.993695,336.175290625,247.79828500000002,336.547070625Q265.00300500000003,340.091580625,282.05346499999996,343.32518062500003Q304.21846500000004,347.52869062499997,326.64419499999997,347.52869062499997L372.799495,347.52869062499997L373.321065,356.98668062499996L370.06152499999996,358.037570625Q366.801955,359.08849062499996,362.23857499999997,360.53342062499996Q357.675205,361.97841062500004,352.199145,363.817470625Q346.723065,365.656510625,342.029315,367.232880625Q337.335575,368.809170625,334.206375,369.991440625Q331.077205,371.173660625,330.816435,371.173660625Q329.773375,371.173660625,327.165755,371.699160625Q325.07962499999996,372.224550625,323.775805,372.224550625Q323.51502500000004,372.224550625,317.778215,370.910930625Q312.041385,369.597320625,302.914645,367.36420062499997Q293.78788499999996,365.13106062500003,282.183855,362.241150625Q270.579845,359.351170625,258.584675,356.461260625Q230.161339,349.630460625,194.17583100000002,340.697940625Q188.178249,337.545290625,184.527554,337.545290625L182.70219,337.545290625Q176.443851,343.062440625,170.446259,350.681370625Q168.881676,352.52042062500004,167.447474,354.228120625Q166.013266,355.935810625,164.709444,357.774860625L159.49415199999999,364.080170625Q158.19033100000001,365.393780625,156.495365,367.626910625Q156.348621,367.82025062499997,156.214697,368.01439062500003Q155.294052,369.349010625,154.9727,370.73012062500004Q154.800392,371.470660625,154.800392,372.224550625L152.714275,372.224550625Q152.192745,371.43640062500003,150.497775,369.72871062499996L149.859358,369.085510625L146.716691,365.919250625L140.1975775,359.87660062500004Q139.6760488,359.87660062500004,138.6329911,358.300310625Q137.32916796,356.72398062499997,136.546875,356.72398062499997L136.546875,355.67310062499996L138.3722266,353.834040625L140.1505508,352.49028062499997L143.5875173,349.893190625Q147.238221,346.74055062499997,150.888925,344.113310625Q154.800392,341.223360625,158.320713,338.46481062500004Q161.841036,335.70624062499996,163.405621,334.392640625Q164.448679,333.604450625,166.14364799999998,332.02812062500004Q167.838615,330.45178062499997,169.403206,328.875490625L172.010849,325.985520625Q173.053909,324.934620625,173.053909,324.146450625L173.053909,234.821040625Q170.339748,234.821040625,167.69891,234.895100625Q162.474812,235.041580625,157.53842,235.477850625Q150.10663,236.134650625,142.2836943,236.922810625L141.2406354,234.821040625L140.7191062,232.982000625L139.9373717,230.81609062500002L139.6760488,230.092060625Q139.6760488,229.566600625,139.4152842,228.778440625Q139.1545196,227.990280625,138.89375569999999,227.464828625L138.3722266,225.625778625Q141.0413404,225.241615625,143.7802396,225.068099625Q144.7875395,225.00428762500002,145.8040161,224.968971625Q149.585099,224.837615625,153.235804,224.574890625Q157.147272,224.31216462499998,160.928356,224.180808625Q164.709444,224.049445625,168.360146,223.52400162499998L169.142441,223.52400162499998Q169.924732,223.261276625,170.446259,222.735832625L171.489319,221.684944625Q172.532375,220.634063625,174.096966,220.634063625L174.879265,220.634063625L176.965378,221.684944625L180.616074,222.998573625L186.092133,225.10033462500002Q188.960541,226.413932625,191.43780900000002,227.464828625Q193.915073,228.515720625,195.218895,228.778440625Q196.261951,228.778440625,196.261951,230.880200625L196.261951,231.931100625Q196.261951,232.719260625,195.088505,234.952410625Q193.915073,237.18555062500002,193.132771,237.97369062500002L193.132771,325.197330625L193.654305,325.72281062499997Q194.17583100000002,326.248210625,195.218895,326.248210625Q196.001183,326.248210625,196.783478,326.510970625Q198.348072,327.036420625,200.173416,327.430470625Q201.998764,327.824570625,203.82412,328.087280625Q204.86718000000002,328.350010625,206.69252,328.350010625L207.735588,328.350010625L211.386292,328.875490625Q211.63782500000002,328.959960625,211.889389,329.037640625Q213.202431,329.443130625,214.51545,329.663620625Q216.080063,329.926380625,217.905403,330.189070625L224.163757,331.502700625Q224.371086,331.554920625,224.568695,331.604110625Q227.32763699999998,332.290860625,227.814461,332.290860625L229.900566,332.290860625Q229.900566,331.502700625,230.161339,330.714510625Q230.161339,329.77272062500003,230.22972099999998,329.037640625Q230.294868,328.337330625,230.422096,327.824570625Q230.422096,325.72281062499997,230.682861,324.934620625L230.682861,277.11926062500004Q230.682861,274.75478062499997,230.943626,271.602080625L230.943626,240.338200625Q231.204391,235.871930625,231.204391,231.799740625L231.204391,216.299148625Q231.204391,212.75239562500002,231.465149,209.599754625L231.465149,200.14176162500002Q234.354462,201.533973625,236.820155,202.499389625Q239.47270500000002,203.537963625,241.634975,204.082588625Q245.80722500000002,205.13347662500001,251.80478499999998,205.13347662500001L255.716275,205.13347662500001L256.759315,204.082588625L264.438925,188.22123762500001L267.18991500000004,182.539394625Q264.040695,182.898586625,260.93206499999997,183.175929625Q250.398405,184.115722625,240.331165,184.115722625Q226.7714,184.115722625,213.472397,185.692046625Q211.125542,184.115722625,209.952087,181.225776625Q208.778648,178.335845625,208.778648,175.445903625L209.300163,174.395023625L218.687698,173.869579625Q221.556107,173.606857625,224.033379,173.47548262499998Q226.51064300000002,173.344127625,227.814461,173.344127625L242.938805,173.344127625Q250.240205,173.606857625,257.54159500000003,171.242347625L257.54159500000003,170.191470625Q257.54159500000003,168.08969862499998,256.759315,167.301532625Q256.37879499999997,166.918151625,255.936545,166.28609062499999Q255.893625,166.224746625,255.850255,166.161250625Q255.42046499999998,165.532085625,254.933955,164.674312625Q253.890915,162.83526262499998,252.587085,160.733489625L250.240205,157.055374625L248.936385,154.953609625Q248.414855,154.165431625,246.98064499999998,151.800941625Q245.546435,149.436448625,243.46031499999998,146.546510625Q241.113445,143.656567625,239.157725,140.635270625Q237.201975,137.613958325,236.941225,137.088525725L236.419678,136.300347325L240.070385,130.257750625L246.850255,133.673137625L250.76174500000002,136.300347325L257.54159500000003,141.292061625L269.27601500000003,150.750060625ZM315.449325,131.447743225L315.45075499999996,131.444228425L315.453945,131.445491825L315.449325,131.447743225ZM147.238221,139.453017625L173.053909,181.488513625L174.096966,183.590282625Q174.357727,184.37845562500002,175.140026,185.954780625Q175.901905,187.489982625,176.911118,189.025169625Q176.938019,189.066093625,176.965378,189.107437625L177.00248299999998,189.166187625L178.79073,191.997382625Q179.736767,193.90366362499998,179.82476,193.864845625Q179.833786,193.86086262499998,179.833786,193.836425625L183.310875,189.802455625L183.54488800000001,189.530963625L188.439018,183.85300462499998Q191.30743,180.700347625,193.263157,177.679038625Q195.218895,174.657737625,195.218895,173.344127625L195.218895,172.293247625L187.656727,164.148860625Q185.831375,162.572532625,183.87563699999998,160.602119625Q181.919899,158.631713625,179.051495,156.267209625Q173.314671,151.538223625,167.969002,147.071954625Q162.623327,142.605672625,158.19033100000001,139.190286625L153.757336,135.249465925L151.931982,134.461301825L147.238221,139.453017625ZM175.633961,190.498283625Q175.96003000000002,190.051097625,176.32793,189.701763625L175.595814,190.551132625Q175.614712,190.524684625,175.633961,190.498283625ZM301.350055,235.740570625Q299.524715,235.871930625,297.960125,235.871930625Q285.443405,236.660090625,273.448245,237.31689062499998Q261.453075,237.97369062500002,248.15409499999998,237.97369062500002L243.199565,237.97369062500002L242.417265,235.871930625L242.417265,217.48139162500001L244.50338499999998,216.955955625Q245.80722500000002,216.693237625,246.719875,216.561889625Q247.632565,216.430511625,248.15409499999998,216.430511625Q253.890915,215.905082625,259.497325,215.773719625Q265.10377500000004,215.642341625,270.840605,215.379630625Q276.05589499999996,215.11690562500002,281.662305,214.985534625Q287.26876500000003,214.854179625,293.266325,214.328750625Q294.309415,214.328750625,296.52590499999997,214.197379625Q298.742385,214.066017625,301.610805,213.803298625Q304.21846500000004,213.540565625,306.304585,213.409217625Q308.390705,213.277862625,309.694515,213.277862625L310.47682499999996,214.328750625L310.47682499999996,232.982000625L309.694515,234.821040625L305.261535,235.346490625Q303.175395,235.609210625,301.350055,235.740570625ZM248.15409499999998,232.618680625L247.77227499999998,232.618680625L247.77227499999998,221.822463625L247.777485,221.82178462500002Q248.059125,221.78551462500002,248.15409499999998,221.78551462500002L248.398815,221.78551462500002L248.642505,221.763191625Q254.198185,221.254356625,259.622775,221.127250625Q265.289065,220.994468625,271.11003500000004,220.727851625Q276.253445,220.468742625,281.787735,220.339065625Q287.462785,220.206100625,293.514735,219.682388625Q293.548955,219.68202962499998,293.585055,219.68155662499998Q294.764735,219.666160625,296.842725,219.542999625Q299.145125,219.406547625,302.147625,219.131324625Q303.73997499999996,218.970886625,305.121825,218.861915625L305.121825,229.970690625L304.592425,230.033450625Q302.648225,230.27830062499999,300.965665,230.399380625Q299.33232499999997,230.516930625,297.960125,230.516930625L297.80242499999997,230.516930625L273.155475,231.96990062499998Q261.30661499999997,232.618680625,248.15409499999998,232.618680625ZM310.47682499999996,268.712160625L301.871585,268.712160625Q295.09169499999996,268.712160625,288.70297500000004,268.97490062500003Q282.314235,269.237610625,275.79513499999996,269.763050625Q269.27601500000003,270.288500625,262.887295,270.551210625Q256.498555,270.813930625,249.979445,270.813930625L243.199565,270.813930625L242.417265,268.712160625L242.417265,251.372530625L243.199565,250.321630625Q248.414855,248.745310625,255.32511499999998,248.482580625Q262.235385,248.219860625,267.18991500000004,248.219860625L276.577425,248.219860625Q277.098935,248.219860625,278.402775,247.957150625L280.48886500000003,247.957150625Q281.531935,247.957150625,282.83576500000004,247.69440062500001L287.007995,247.168970625L310.47682499999996,247.168970625L310.47682499999996,268.712160625ZM305.121825,252.523970625L305.121825,263.357160625L301.871585,263.357160625Q294.98146499999996,263.357160625,288.482955,263.62442062499997Q281.988965,263.89146062500004,275.364915,264.42535062499996Q268.95072500000003,264.942350625,262.667255,265.200730625Q256.388355,265.45894062499997,249.979445,265.45894062499997L247.77227499999998,265.45894062499997L247.77227499999998,254.69565062499998Q248.083485,254.633190625,248.40079500000002,254.57504062499999Q251.639265,253.981580625,255.528545,253.833720625Q262.337085,253.57486062499999,267.18991500000004,253.57486062499999L276.577425,253.57486062499999Q277.469055,253.57486062499999,278.91139499999997,253.31215062500002L280.48886500000003,253.31215062500002Q281.976515,253.31215062500002,283.686815,252.98452062500002L287.34382500000004,252.523970625L305.121825,252.523970625ZM310.330655,274.654220625Q310.388915,274.58061062499996,310.47682499999996,274.492050625L310.47682499999996,275.017490625Q310.268825,275.017490625,310.22673499999996,274.933910625Q310.181065,274.843250625,310.330655,274.654220625ZM281.662305,306.938190625Q273.969775,307.332270625,266.929105,307.332270625Q263.278415,307.59502062499996,260.279645,307.59502062499996L254.41243500000002,307.59502062499996Q251.544025,307.857710625,249.979445,307.857710625L243.46031499999998,307.857710625L242.678035,305.755920625L242.678035,284.212720625L243.46031499999998,283.16186062500003Q248.675625,281.585540625,255.45549499999998,281.322810625Q262.235385,281.060060625,266.668365,281.060060625L273.448245,281.060060625Q274.491305,281.060060625,275.79513499999996,280.797360625L277.750865,280.797360625Q278.924305,280.797360625,280.228135,280.534620625L284.400345,280.009220625L309.95527500000003,280.009220625L310.22193500000003,280.367420625L310.737575,281.060060625L310.737575,303.65414062499997Q310.737575,304.705060625,306.565335,304.967790625Q304.479235,305.493190625,301.871585,305.624590625Q299.263935,305.755920625,296.13478499999997,306.018660625Q289.35488499999997,306.544100625,281.662305,306.938190625ZM249.979445,302.502720625L248.03303499999998,302.502720625L248.03303499999998,287.533260625Q248.336435,287.471980625,248.644665,287.414980625Q251.85377499999998,286.821400625,255.66287499999999,286.673800625Q262.33921499999997,286.415050625,266.668365,286.415050625L273.448245,286.415050625Q274.780475,286.415050625,276.29121499999997,286.15236062500003L277.750865,286.15236062500003Q279.361255,286.15236062500003,281.078125,285.824870625L284.736195,285.364210625L305.382585,285.364210625L305.382585,299.743440625L305.257475,299.774950625Q303.682905,300.17152062499997,301.602215,300.276370625Q298.904965,300.41222062500003,295.721005,300.67967062499997Q289.011185,301.19968062500004,281.388335,301.590190625Q273.832515,301.977280625,266.929105,301.977280625L266.736665,301.977280625L266.544705,301.99109062499997Q263.085885,302.240020625,260.279645,302.240020625L254.167735,302.240020625L253.924055,302.262330625Q251.299235,302.502720625,249.979445,302.502720625Z" fill-rule="evenodd" fill="#D4B039" fill-opacity="1"/></svg>