<svg xmlns="http://www.w3.org/2000/svg" xmlns:xlink="http://www.w3.org/1999/xlink" fill="none" version="1.1" width="46.659488677978516" height="46.71024703979492" viewBox="0 0 46.659488677978516 46.71024703979492"><path d="M6.8283577,39.855667C0.15973997,33.176823,-1.8334107,23.140654,1.7770023,14.420429C5.3874168,5.7002034,13.89162,0.010229588,23.329693,0L23.381023,0C32.809765,0.030901909,41.295033,5.7284617,44.892303,14.444065C48.489574,23.159666,46.493118,33.183445,39.831024,39.855667C30.72929,48.99511,15.932427,48.99511,6.8306932,39.855667L6.8283577,39.855667ZM23.341358,33.833332C23.341362,35.766331,24.908367,37.333332,26.841362,37.333332C28.774357,37.333332,30.341362,35.766331,30.341362,33.833332C30.341362,31.900335,28.774357,30.333334,26.841358,30.333334C24.908363,30.33333,23.341362,31.900335,23.341358,33.833332ZM10.127691,10.157C2.8518648,17.45192,2.8518648,29.259081,10.127691,36.553997C10.242024,36.668331,10.361025,36.787331,10.484692,36.880665L10.718025,37.078999C10.718025,37.078999,10.718025,37.060333,10.718025,37.060333C10.718025,37.060333,10.718025,37.029999,10.718025,37.029999C9.9316921,33.697998,10.396026,27.213667,22.326359,21.252001C29.13969,17.847668,32.555691,13.820333,31.701691,10.198999C30.40707,6.7611585,27.061493,4.5342193,23.390358,4.6666665L23.329689,4.6666665C18.372433,4.6604238,13.618646,6.6373868,10.127691,10.157ZM16.341358,12.833334C16.341358,10.900335,17.908363,9.333334,19.841358,9.333334C21.774357,9.333334,23.341358,10.900337,23.341358,12.833334C23.341358,14.766331,21.774357,16.333334,19.841358,16.333334C17.90836,16.333334,16.341358,14.766331,16.341358,12.833334Z" fill="#212B36" fill-opacity="1" style="mix-blend-mode:passthrough"/></svg>